<svg id="Layer_1" data-name="Layer 1" xmlns="http://www.w3.org/2000/svg" viewBox="0 0 30.09 23.71"><defs><style>.cls-1{fill:#c03f2e;}.cls-2{fill:#db755a;}.cls-3{fill:#fff;}.cls-4{fill:#f3af44;}.cls-5{fill:#3a0007;}.cls-6{fill:#ff5353;}.cls-7{fill:none;stroke:#000;stroke-miterlimit:10;stroke-width:0.65px;}</style></defs><path class="cls-1" d="M31,6.21c-.4,1.24-.85,2.43-1,2.88a.33.33,0,0,1-.26.21l-3.2.65-1.22.25,1.22-.14,2.21-.24a.35.35,0,0,1,.32.55L28,11.88a.33.33,0,0,1-.25.15l-.88.06a.37.37,0,0,0-.33.35V24.61a4,4,0,0,1-1.47,3.11,4.14,4.14,0,0,1-2.54.91H9.43a4.46,4.46,0,0,1-1-.12,4,4,0,0,1-1.56-.79,4,4,0,0,1-1.47-3.11V12.44a.37.37,0,0,0-.33-.35L4.21,12A.33.33,0,0,1,4,11.88L2.89,10.37a.35.35,0,0,1,.32-.55l2.21.24,1.22.14L5.42,10,2.22,9.3A.33.33,0,0,1,2,9.09c-.17-.45-.61-1.64-1-2.88a.35.35,0,0,1,.5-.41A20.84,20.84,0,0,0,5.39,7.5l.1,0h8c-.08-.24-.16-.49-.22-.73a.06.06,0,0,1,.11,0,5.72,5.72,0,0,0,.78.78,8.3,8.3,0,0,0,1.31.9,2.23,2.23,0,0,1-.78-.9A5.22,5.22,0,0,1,14.21,5a.07.07,0,0,1,.13,0,7.25,7.25,0,0,0,2.05,2.56H26.45l.1,0a20.84,20.84,0,0,0,3.94-1.7A.35.35,0,0,1,31,6.21Z" transform="translate(-0.93 -4.91)"/><path class="cls-2" d="M23.49,16V28.5a3.93,3.93,0,0,1-1,.13H9.43a4.46,4.46,0,0,1-1-.12V16Z" transform="translate(-0.93 -4.91)"/><path class="cls-3" d="M26,16a4.82,4.82,0,1,1-4.82-4.82A4.81,4.81,0,0,1,26,16Z" transform="translate(-0.93 -4.91)"/><path class="cls-3" d="M15.55,16a4.82,4.82,0,1,1-4.82-4.82A4.81,4.81,0,0,1,15.55,16Z" transform="translate(-0.93 -4.91)"/><path class="cls-4" d="M18.68,23.19a.46.46,0,0,1-.05.2,4.82,4.82,0,0,1-2.48,2.39h0a.45.45,0,0,1-.36,0h0a4.82,4.82,0,0,1-2.48-2.39.46.46,0,0,1-.05-.2c-.08-2.11,2.41-3.88,2.7-4.07h0C16.27,19.31,18.76,21.08,18.68,23.19Z" transform="translate(-0.93 -4.91)"/><path class="cls-5" d="M18,23.67h0v0a1.39,1.39,0,0,1-.41.46,3.77,3.77,0,0,1-1.25.58L16,24.8h0l-.31-.07c-.15,0-.31-.1-.48-.16a3.18,3.18,0,0,1-.82-.46,1.19,1.19,0,0,1-.32-.35l0-.09h0a1.78,1.78,0,0,1,.42-2.42,1.8,1.8,0,0,1,1.17,0,1.55,1.55,0,0,0,.8,0,1.8,1.8,0,0,1,1.17,0A1.78,1.78,0,0,1,18,23.67Z" transform="translate(-0.93 -4.91)"/><path class="cls-6" d="M18,23.68v0a1.39,1.39,0,0,1-.41.46,3.77,3.77,0,0,1-1.25.58L16,24.8h0l-.31-.07c-.15,0-.31-.1-.48-.16a3.18,3.18,0,0,1-.82-.46,1.19,1.19,0,0,1-.32-.35l0-.09a2,2,0,0,1,4,0Z" transform="translate(-0.93 -4.91)"/><circle class="cls-7" cx="20.28" cy="11.03" r="4.82"/><circle class="cls-7" cx="9.81" cy="11.03" r="4.82"/><line class="cls-7" x1="15.46" y1="11.03" x2="14.62" y2="11.03"/><line class="cls-7" x1="25.59" y1="11.03" x2="25.1" y2="11.03"/><line class="cls-7" x1="4.99" y1="11.03" x2="4.49" y2="11.03"/><circle cx="19.98" cy="11.03" r="2.13"/><circle class="cls-3" cx="20.85" cy="10.28" r="0.75"/><circle cx="10.05" cy="11.03" r="2.13"/><circle class="cls-3" cx="10.92" cy="10.28" r="0.75"/></svg>