<?xml version="1.0" encoding="utf-8"?>
<!-- Generator: Adobe Illustrator 26.0.1, SVG Export Plug-In . SVG Version: 6.00 Build 0)  -->
<svg version="1.1" id="Layer_1" xmlns="http://www.w3.org/2000/svg" xmlns:xlink="http://www.w3.org/1999/xlink" x="0px" y="0px"
	 viewBox="0 0 512 512" style="enable-background:new 0 0 512 512;" xml:space="preserve">
<style type="text/css">
	.st0{fill:#C03F2E;}
	.st1{fill:#DB755A;}
	.st2{fill:#FFFFFF;}
	.st3{fill:#F3AF44;}
	.st4{fill:#3A0007;}
	.st5{fill:#FF5353;}
	.st6{fill:none;stroke:#000000;stroke-width:10.9332;stroke-miterlimit:10;}
</style>
<g>
	<path class="st0" d="M507.33,80.14c-6.68,20.67-14.13,40.67-16.93,48.04c-0.71,1.87-2.32,3.24-4.29,3.64l-53.5,10.8l-20.42,4.12
		l20.42-2.23l36.83-4.05c4.98-0.54,8.28,5.04,5.4,9.15l-17.82,25.27c-0.98,1.4-2.51,2.29-4.21,2.44c-2.92,0.27-8.02,0.7-14.7,1.08
		c-3.08,0.18-5.5,2.73-5.5,5.82v203.25c0,20.9-9.56,39.55-24.56,51.84c-7.48,6.13-16.32,10.68-26,13.12
		c-5.25,1.32-10.74,2.03-16.4,2.03H147.17c-5.64,0-11.12-0.7-16.35-2.01c-9.71-2.43-18.57-6.98-26.08-13.13
		c-14.99-12.29-24.56-30.96-24.56-51.84V184.24c0-3.08-2.42-5.63-5.5-5.82c-6.63-0.39-11.72-0.82-14.63-1.08
		c-1.69-0.15-3.23-1.04-4.21-2.44l-17.82-25.27c-2.88-4.11,0.42-9.69,5.4-9.15l36.76,4.03l20.5,2.25l-20.5-4.14l-53.43-10.78
		c-1.96-0.4-3.57-1.77-4.29-3.64c-2.8-7.38-10.25-27.37-16.93-48.04c-1.64-5.04,3.75-9.46,8.37-6.87
		C35.99,85.6,58.13,94.85,79.7,101.74c0.58,0.19,1.19,0.28,1.8,0.28h134.36c-1.36-4.01-2.59-8.1-3.7-12.15
		c-0.31-1.13,1.17-1.86,1.88-0.93c3.18,4.14,7.83,8.71,13.05,13.08c6.95,5.83,14.91,11.32,21.76,15.01
		c-5.38-3.29-9.67-8.69-12.98-15.01c-7.22-13.84-9.74-32.14-8.78-42.53c0.11-1.13,1.65-1.32,2.07-0.27
		c7.29,18.36,24.76,34.79,34.29,42.8h167.94c0.61,0,1.22-0.09,1.8-0.28c21.57-6.89,43.7-16.14,65.78-28.47
		C503.58,70.68,508.97,75.1,507.33,80.14z"/>
	<path class="st1" d="M382.05,242.72v209.72c-5.25,1.32-10.74,2.03-16.4,2.03H147.17c-5.64,0-11.12-0.7-16.35-2.01V242.72H382.05z"
		/>
</g>
<g>
	<path class="st2" d="M424.37,242.72c0,44.44-36.03,80.48-80.47,80.48s-80.48-36.03-80.48-80.48s36.03-80.47,80.48-80.47
		S424.37,198.28,424.37,242.72z"/>
	<path class="st2" d="M249.45,242.72c0,44.44-36.03,80.48-80.48,80.48S88.5,287.17,88.5,242.72s36.03-80.47,80.47-80.47
		S249.45,198.28,249.45,242.72z"/>
</g>
<g>
	<path class="st3" d="M301.74,363.64c-0.04,1.17-0.39,2.33-0.96,3.36c-14.5,26.3-29.36,34.91-41.28,40.01
		c-0.01,0-0.02,0.01-0.03,0.01c-1.93,0.84-4.14,0.84-6.07,0c-0.01,0-0.02-0.01-0.03-0.01c-11.92-5.1-26.78-13.71-41.28-40.01
		c-0.57-1.03-0.92-2.19-0.96-3.36c-1.22-35.2,40.27-64.7,45.08-67.97c0.09-0.07,0.17-0.12,0.23-0.16c0.06,0.04,0.13,0.09,0.23,0.16
		C261.47,298.93,302.98,328.44,301.74,363.64z"/>
	<path class="st4" d="M289.67,371.65c-0.05,0.11-0.11,0.2-0.17,0.29c-0.05,0.09-0.09,0.17-0.14,0.25c-1.71,3.03-4.05,5.69-6.85,7.76
		c-6.74,5-14.64,7.91-20.84,9.57c-1.62,0.43-3.11,0.78-4.43,1.05c-0.26,0.06-0.52,0.12-0.78,0.17c-1.52-0.29-3.31-0.69-5.25-1.22
		c-2.46-0.66-5.19-1.52-8.02-2.63c-4.57-1.79-9.39-4.23-13.67-7.57c-2.12-1.66-3.94-3.69-5.34-5.99c-0.28-0.48-0.55-0.92-0.8-1.39
		c-0.06-0.09-0.12-0.2-0.17-0.29c-9.85-17.79-2.43-35.61,6.94-40.31c5.83-2.94,13.82-1.83,19.64-0.32c4.37,1.12,8.94,1.14,13.3,0
		c5.82-1.51,13.81-2.62,19.64,0.32C292.1,336.03,299.52,353.85,289.67,371.65z"/>
	<path class="st5" d="M289.5,371.94c-0.05,0.09-0.09,0.17-0.14,0.25c-1.71,3.03-4.05,5.69-6.85,7.76c-6.74,5-14.64,7.91-20.84,9.57
		c-1.62,0.43-3.11,0.78-4.43,1.05c-0.26,0.06-0.52,0.12-0.78,0.17c-1.52-0.29-3.31-0.69-5.25-1.22c-2.46-0.66-5.19-1.52-8.02-2.63
		c-4.57-1.79-9.39-4.23-13.67-7.57c-2.12-1.66-3.94-3.69-5.34-5.99c-0.28-0.48-0.55-0.92-0.8-1.39
		c2.39-15.99,16.28-28.26,33.06-28.26C273.21,343.68,287.11,355.95,289.5,371.94z"/>
</g>
<g>
	<g>
		<circle class="st6" cx="343.9" cy="242.72" r="80.47"/>
		<circle class="st6" cx="168.98" cy="242.72" r="80.47"/>
		<line class="st6" x1="263.42" y1="242.72" x2="249.45" y2="242.72"/>
		<line class="st6" x1="432.62" y1="242.72" x2="424.37" y2="242.72"/>
		<line class="st6" x1="88.5" y1="242.72" x2="80.19" y2="242.72"/>
	</g>
	<circle cx="338.87" cy="242.72" r="35.51"/>
	<circle class="st2" cx="353.36" cy="230.16" r="12.56"/>
	<circle cx="173.06" cy="242.72" r="35.51"/>
	<circle class="st2" cx="187.54" cy="230.16" r="12.56"/>
</g>
</svg>
